<svg width="8" height="12" viewBox="0 0 8 12" fill="none" xmlns="http://www.w3.org/2000/svg">
<path d="M0.475 11.55C0.225 11.3 0.1 10.9917 0.1 10.625C0.1 10.2583 0.225 9.95 0.475 9.7L4.2 5.975L0.475 2.25C0.225 2 0.1 1.69167 0.1 1.325C0.1 0.958333 0.225 0.65 0.475 0.4C0.725 0.15 1.03333 0.0250001 1.4 0.0250001C1.76667 0.0250001 2.075 0.15 2.325 0.4L6.975 5.05C7.10833 5.18333 7.20433 5.32933 7.263 5.488C7.321 5.646 7.35 5.80833 7.35 5.975C7.35 6.14167 7.321 6.304 7.263 6.462C7.20433 6.62067 7.10833 6.76667 6.975 6.9L2.325 11.55C2.075 11.8 1.76667 11.925 1.4 11.925C1.03333 11.925 0.725 11.8 0.475 11.55Z" fill="#767676"/>
</svg>
